<mxfile host="app.diagrams.net" modified="2023-12-18T15:34:21.766Z" agent="Mozilla/5.0 (Macintosh; Intel Mac OS X 10_15_7) AppleWebKit/537.36 (KHTML, like Gecko) Chrome/120.0.0.0 Safari/537.36" etag="4jupHZh-T4KjxEGmEsHf" version="22.1.11" type="github">
  <diagram name="Page-1" id="ZWRehLtP9DMC1QA5jhXC">
    <mxGraphModel dx="1718" dy="1116" grid="1" gridSize="10" guides="1" tooltips="1" connect="1" arrows="1" fold="1" page="1" pageScale="1" pageWidth="850" pageHeight="1100" math="0" shadow="0">
      <root>
        <mxCell id="0" />
        <mxCell id="1" parent="0" />
        <mxCell id="KU6yMKdAdcNV7RSqt3Mc-1" value="" style="rounded=0;whiteSpace=wrap;html=1;" parent="1" vertex="1">
          <mxGeometry x="335" width="180" height="150" as="geometry" />
        </mxCell>
        <mxCell id="KU6yMKdAdcNV7RSqt3Mc-2" value="" style="endArrow=none;html=1;rounded=0;exitX=0;exitY=0.25;exitDx=0;exitDy=0;entryX=1;entryY=0.25;entryDx=0;entryDy=0;" parent="1" source="KU6yMKdAdcNV7RSqt3Mc-1" target="KU6yMKdAdcNV7RSqt3Mc-1" edge="1">
          <mxGeometry width="50" height="50" relative="1" as="geometry">
            <mxPoint x="605" y="270" as="sourcePoint" />
            <mxPoint x="655" y="220" as="targetPoint" />
          </mxGeometry>
        </mxCell>
        <mxCell id="KU6yMKdAdcNV7RSqt3Mc-3" value="&lt;font face=&quot;Times New Roman&quot; style=&quot;font-size: 14px;&quot;&gt;Enemy&lt;br&gt;&lt;/font&gt;" style="text;html=1;strokeColor=none;fillColor=none;align=center;verticalAlign=middle;whiteSpace=wrap;rounded=0;" parent="1" vertex="1">
          <mxGeometry x="335" width="180" height="40" as="geometry" />
        </mxCell>
        <mxCell id="KU6yMKdAdcNV7RSqt3Mc-4" value="" style="endArrow=none;html=1;rounded=0;exitX=0;exitY=0.75;exitDx=0;exitDy=0;entryX=1;entryY=0.75;entryDx=0;entryDy=0;" parent="1" source="KU6yMKdAdcNV7RSqt3Mc-1" target="KU6yMKdAdcNV7RSqt3Mc-1" edge="1">
          <mxGeometry width="50" height="50" relative="1" as="geometry">
            <mxPoint x="605" y="270" as="sourcePoint" />
            <mxPoint x="655" y="220" as="targetPoint" />
          </mxGeometry>
        </mxCell>
        <mxCell id="1dYv60Zq_1LRJ3aGBBcX-25" style="edgeStyle=orthogonalEdgeStyle;rounded=0;orthogonalLoop=1;jettySize=auto;html=1;entryX=0.5;entryY=0;entryDx=0;entryDy=0;" edge="1" parent="1" source="KU6yMKdAdcNV7RSqt3Mc-5" target="1dYv60Zq_1LRJ3aGBBcX-3">
          <mxGeometry relative="1" as="geometry" />
        </mxCell>
        <mxCell id="1dYv60Zq_1LRJ3aGBBcX-27" style="edgeStyle=orthogonalEdgeStyle;rounded=0;orthogonalLoop=1;jettySize=auto;html=1;exitX=0;exitY=0.5;exitDx=0;exitDy=0;entryX=0;entryY=0;entryDx=0;entryDy=0;" edge="1" parent="1" source="KU6yMKdAdcNV7RSqt3Mc-5" target="1dYv60Zq_1LRJ3aGBBcX-9">
          <mxGeometry relative="1" as="geometry" />
        </mxCell>
        <mxCell id="1dYv60Zq_1LRJ3aGBBcX-28" style="edgeStyle=orthogonalEdgeStyle;rounded=0;orthogonalLoop=1;jettySize=auto;html=1;exitX=1;exitY=0.5;exitDx=0;exitDy=0;entryX=1;entryY=0;entryDx=0;entryDy=0;" edge="1" parent="1" source="KU6yMKdAdcNV7RSqt3Mc-5" target="1dYv60Zq_1LRJ3aGBBcX-15">
          <mxGeometry relative="1" as="geometry" />
        </mxCell>
        <mxCell id="1dYv60Zq_1LRJ3aGBBcX-29" style="edgeStyle=orthogonalEdgeStyle;rounded=0;orthogonalLoop=1;jettySize=auto;html=1;entryX=0.5;entryY=0;entryDx=0;entryDy=0;" edge="1" parent="1" source="KU6yMKdAdcNV7RSqt3Mc-5" target="1dYv60Zq_1LRJ3aGBBcX-21">
          <mxGeometry relative="1" as="geometry" />
        </mxCell>
        <mxCell id="KU6yMKdAdcNV7RSqt3Mc-5" value="&lt;div style=&quot;&quot;&gt;&lt;ul&gt;&lt;li&gt;&lt;font face=&quot;Times New Roman&quot;&gt;&lt;span style=&quot;font-size: 14px;&quot;&gt;[int] healthCheck&lt;/span&gt;&lt;/font&gt;&lt;/li&gt;&lt;li&gt;&lt;font face=&quot;Times New Roman&quot;&gt;&lt;span style=&quot;font-size: 14px;&quot;&gt;[bool]affectApplied&lt;/span&gt;&lt;/font&gt;&lt;/li&gt;&lt;li&gt;&lt;font face=&quot;Times New Roman&quot;&gt;&lt;span style=&quot;font-size: 14px;&quot;&gt;[int]move&lt;/span&gt;&lt;/font&gt;&lt;/li&gt;&lt;/ul&gt;&lt;/div&gt;" style="text;html=1;strokeColor=none;fillColor=none;align=left;verticalAlign=middle;whiteSpace=wrap;rounded=0;" parent="1" vertex="1">
          <mxGeometry x="335" y="40" width="180" height="70" as="geometry" />
        </mxCell>
        <mxCell id="KU6yMKdAdcNV7RSqt3Mc-6" value="" style="rounded=0;whiteSpace=wrap;html=1;" parent="1" vertex="1">
          <mxGeometry x="335" y="610" width="180" height="150" as="geometry" />
        </mxCell>
        <mxCell id="KU6yMKdAdcNV7RSqt3Mc-7" value="" style="endArrow=none;html=1;rounded=0;exitX=0;exitY=0.25;exitDx=0;exitDy=0;entryX=1;entryY=0.25;entryDx=0;entryDy=0;" parent="1" source="KU6yMKdAdcNV7RSqt3Mc-6" target="KU6yMKdAdcNV7RSqt3Mc-6" edge="1">
          <mxGeometry width="50" height="50" relative="1" as="geometry">
            <mxPoint x="605" y="880" as="sourcePoint" />
            <mxPoint x="655" y="830" as="targetPoint" />
          </mxGeometry>
        </mxCell>
        <mxCell id="1dYv60Zq_1LRJ3aGBBcX-87" style="edgeStyle=orthogonalEdgeStyle;rounded=0;orthogonalLoop=1;jettySize=auto;html=1;exitX=0.5;exitY=0;exitDx=0;exitDy=0;entryX=0.5;entryY=1;entryDx=0;entryDy=0;" edge="1" parent="1" source="KU6yMKdAdcNV7RSqt3Mc-8" target="KU6yMKdAdcNV7RSqt3Mc-11">
          <mxGeometry relative="1" as="geometry" />
        </mxCell>
        <mxCell id="KU6yMKdAdcNV7RSqt3Mc-8" value="&lt;font face=&quot;Times New Roman&quot; style=&quot;font-size: 14px;&quot;&gt;Player&lt;br&gt;&lt;/font&gt;" style="text;html=1;strokeColor=none;fillColor=none;align=center;verticalAlign=middle;whiteSpace=wrap;rounded=0;" parent="1" vertex="1">
          <mxGeometry x="335" y="610" width="180" height="40" as="geometry" />
        </mxCell>
        <mxCell id="KU6yMKdAdcNV7RSqt3Mc-9" value="" style="endArrow=none;html=1;rounded=0;exitX=0;exitY=0.75;exitDx=0;exitDy=0;entryX=1;entryY=0.75;entryDx=0;entryDy=0;" parent="1" source="KU6yMKdAdcNV7RSqt3Mc-6" target="KU6yMKdAdcNV7RSqt3Mc-6" edge="1">
          <mxGeometry width="50" height="50" relative="1" as="geometry">
            <mxPoint x="605" y="880" as="sourcePoint" />
            <mxPoint x="655" y="830" as="targetPoint" />
          </mxGeometry>
        </mxCell>
        <mxCell id="KU6yMKdAdcNV7RSqt3Mc-10" value="&lt;div style=&quot;&quot;&gt;&lt;ul&gt;&lt;li&gt;&lt;font face=&quot;Times New Roman&quot;&gt;&lt;span style=&quot;font-size: 14px;&quot;&gt;[bool] placeTower&lt;/span&gt;&lt;/font&gt;&lt;/li&gt;&lt;li&gt;&lt;font face=&quot;Times New Roman&quot;&gt;&lt;span style=&quot;font-size: 14px;&quot;&gt;[int]spendMoney&lt;/span&gt;&lt;/font&gt;&lt;/li&gt;&lt;li&gt;&lt;font face=&quot;Times New Roman&quot;&gt;&lt;span style=&quot;font-size: 14px;&quot;&gt;[bool]startRound&lt;/span&gt;&lt;/font&gt;&lt;/li&gt;&lt;li&gt;&lt;font face=&quot;Times New Roman&quot;&gt;&lt;span style=&quot;font-size: 14px;&quot;&gt;[int]attack&lt;/span&gt;&lt;/font&gt;&lt;/li&gt;&lt;/ul&gt;&lt;/div&gt;" style="text;html=1;strokeColor=none;fillColor=none;align=left;verticalAlign=middle;whiteSpace=wrap;rounded=0;" parent="1" vertex="1">
          <mxGeometry x="335" y="655" width="170" height="60" as="geometry" />
        </mxCell>
        <mxCell id="KU6yMKdAdcNV7RSqt3Mc-11" value="" style="rounded=0;whiteSpace=wrap;html=1;" parent="1" vertex="1">
          <mxGeometry x="340" y="390" width="180" height="150" as="geometry" />
        </mxCell>
        <mxCell id="KU6yMKdAdcNV7RSqt3Mc-12" value="" style="endArrow=none;html=1;rounded=0;exitX=0;exitY=0.25;exitDx=0;exitDy=0;entryX=1;entryY=0.25;entryDx=0;entryDy=0;" parent="1" source="KU6yMKdAdcNV7RSqt3Mc-11" target="KU6yMKdAdcNV7RSqt3Mc-11" edge="1">
          <mxGeometry width="50" height="50" relative="1" as="geometry">
            <mxPoint x="610" y="660" as="sourcePoint" />
            <mxPoint x="660" y="610" as="targetPoint" />
          </mxGeometry>
        </mxCell>
        <mxCell id="KU6yMKdAdcNV7RSqt3Mc-13" value="&lt;font face=&quot;Times New Roman&quot; style=&quot;font-size: 14px;&quot;&gt;GameBoard&lt;br&gt;&lt;/font&gt;" style="text;html=1;strokeColor=none;fillColor=none;align=center;verticalAlign=middle;whiteSpace=wrap;rounded=0;" parent="1" vertex="1">
          <mxGeometry x="340" y="390" width="180" height="40" as="geometry" />
        </mxCell>
        <mxCell id="KU6yMKdAdcNV7RSqt3Mc-14" value="" style="endArrow=none;html=1;rounded=0;exitX=0;exitY=0.75;exitDx=0;exitDy=0;entryX=1;entryY=0.75;entryDx=0;entryDy=0;" parent="1" source="KU6yMKdAdcNV7RSqt3Mc-11" target="KU6yMKdAdcNV7RSqt3Mc-11" edge="1">
          <mxGeometry width="50" height="50" relative="1" as="geometry">
            <mxPoint x="610" y="660" as="sourcePoint" />
            <mxPoint x="660" y="610" as="targetPoint" />
          </mxGeometry>
        </mxCell>
        <mxCell id="KU6yMKdAdcNV7RSqt3Mc-15" value="&lt;div style=&quot;&quot;&gt;&lt;ul&gt;&lt;li&gt;&lt;font face=&quot;Times New Roman&quot;&gt;&lt;span style=&quot;font-size: 14px;&quot;&gt;open shop&lt;/span&gt;&lt;/font&gt;&lt;/li&gt;&lt;li&gt;&lt;font face=&quot;Times New Roman&quot;&gt;&lt;span style=&quot;font-size: 14px;&quot;&gt;check lives&lt;/span&gt;&lt;/font&gt;&lt;/li&gt;&lt;li&gt;&lt;font face=&quot;Times New Roman&quot;&gt;&lt;span style=&quot;font-size: 14px;&quot;&gt;delete enemy&lt;/span&gt;&lt;/font&gt;&lt;/li&gt;&lt;li&gt;&lt;font face=&quot;Times New Roman&quot;&gt;&lt;span style=&quot;font-size: 14px;&quot;&gt;start/end rounds&lt;/span&gt;&lt;/font&gt;&lt;/li&gt;&lt;/ul&gt;&lt;/div&gt;" style="text;html=1;strokeColor=none;fillColor=none;align=left;verticalAlign=middle;whiteSpace=wrap;rounded=0;" parent="1" vertex="1">
          <mxGeometry x="340" y="430" width="180" height="70" as="geometry" />
        </mxCell>
        <mxCell id="1dYv60Zq_1LRJ3aGBBcX-91" style="edgeStyle=orthogonalEdgeStyle;rounded=0;orthogonalLoop=1;jettySize=auto;html=1;entryX=0.5;entryY=0;entryDx=0;entryDy=0;" edge="1" parent="1" source="KU6yMKdAdcNV7RSqt3Mc-19" target="KU6yMKdAdcNV7RSqt3Mc-13">
          <mxGeometry relative="1" as="geometry" />
        </mxCell>
        <mxCell id="KU6yMKdAdcNV7RSqt3Mc-19" value="&lt;font style=&quot;font-size: 11px;&quot;&gt;Enemy types: all from BTD except for ones not actually monkeys&lt;/font&gt;" style="text;html=1;strokeColor=none;fillColor=none;align=center;verticalAlign=middle;whiteSpace=wrap;rounded=0;" parent="1" vertex="1">
          <mxGeometry x="345" y="110" width="170" height="40" as="geometry" />
        </mxCell>
        <mxCell id="_8yFZwngdMzLIjRQkhzj-1" value="" style="rounded=0;whiteSpace=wrap;html=1;" parent="1" vertex="1">
          <mxGeometry x="25" y="390" width="180" height="150" as="geometry" />
        </mxCell>
        <mxCell id="_8yFZwngdMzLIjRQkhzj-2" value="" style="endArrow=none;html=1;rounded=0;exitX=0;exitY=0.25;exitDx=0;exitDy=0;entryX=1;entryY=0.25;entryDx=0;entryDy=0;" parent="1" source="_8yFZwngdMzLIjRQkhzj-1" target="_8yFZwngdMzLIjRQkhzj-1" edge="1">
          <mxGeometry width="50" height="50" relative="1" as="geometry">
            <mxPoint x="295" y="660" as="sourcePoint" />
            <mxPoint x="345" y="610" as="targetPoint" />
          </mxGeometry>
        </mxCell>
        <mxCell id="_8yFZwngdMzLIjRQkhzj-3" value="&lt;font face=&quot;Times New Roman&quot; style=&quot;font-size: 14px;&quot;&gt;Shop&lt;br&gt;&lt;/font&gt;" style="text;html=1;strokeColor=none;fillColor=none;align=center;verticalAlign=middle;whiteSpace=wrap;rounded=0;" parent="1" vertex="1">
          <mxGeometry x="25" y="390" width="180" height="40" as="geometry" />
        </mxCell>
        <mxCell id="_8yFZwngdMzLIjRQkhzj-4" value="" style="endArrow=none;html=1;rounded=0;exitX=0;exitY=0.75;exitDx=0;exitDy=0;entryX=1;entryY=0.75;entryDx=0;entryDy=0;" parent="1" source="_8yFZwngdMzLIjRQkhzj-1" target="_8yFZwngdMzLIjRQkhzj-1" edge="1">
          <mxGeometry width="50" height="50" relative="1" as="geometry">
            <mxPoint x="295" y="660" as="sourcePoint" />
            <mxPoint x="345" y="610" as="targetPoint" />
          </mxGeometry>
        </mxCell>
        <mxCell id="1dYv60Zq_1LRJ3aGBBcX-89" style="edgeStyle=orthogonalEdgeStyle;rounded=0;orthogonalLoop=1;jettySize=auto;html=1;entryX=0;entryY=0.5;entryDx=0;entryDy=0;" edge="1" parent="1" source="_8yFZwngdMzLIjRQkhzj-6" target="KU6yMKdAdcNV7RSqt3Mc-15">
          <mxGeometry relative="1" as="geometry" />
        </mxCell>
        <mxCell id="_8yFZwngdMzLIjRQkhzj-6" value="&lt;ul&gt;&lt;li&gt;close/open shop&lt;/li&gt;&lt;li&gt;choose tower&lt;/li&gt;&lt;/ul&gt;" style="text;html=1;strokeColor=none;fillColor=none;align=left;verticalAlign=middle;whiteSpace=wrap;rounded=0;" parent="1" vertex="1">
          <mxGeometry x="25" y="430" width="180" height="70" as="geometry" />
        </mxCell>
        <mxCell id="_8yFZwngdMzLIjRQkhzj-8" value="Interaction with towers" style="text;html=1;strokeColor=none;fillColor=none;align=center;verticalAlign=middle;whiteSpace=wrap;rounded=0;" parent="1" vertex="1">
          <mxGeometry x="335" y="725" width="180" height="30" as="geometry" />
        </mxCell>
        <mxCell id="_8yFZwngdMzLIjRQkhzj-9" value="Buy/sell/upgrade towers" style="text;html=1;strokeColor=none;fillColor=none;align=center;verticalAlign=middle;whiteSpace=wrap;rounded=0;" parent="1" vertex="1">
          <mxGeometry x="25" y="500" width="180" height="40" as="geometry" />
        </mxCell>
        <mxCell id="_8yFZwngdMzLIjRQkhzj-16" value="" style="rounded=0;whiteSpace=wrap;html=1;" parent="1" vertex="1">
          <mxGeometry x="650" y="390" width="180" height="150" as="geometry" />
        </mxCell>
        <mxCell id="_8yFZwngdMzLIjRQkhzj-17" value="" style="endArrow=none;html=1;rounded=0;exitX=0;exitY=0.25;exitDx=0;exitDy=0;entryX=1;entryY=0.25;entryDx=0;entryDy=0;" parent="1" source="_8yFZwngdMzLIjRQkhzj-16" target="_8yFZwngdMzLIjRQkhzj-16" edge="1">
          <mxGeometry width="50" height="50" relative="1" as="geometry">
            <mxPoint x="920" y="660" as="sourcePoint" />
            <mxPoint x="970" y="610" as="targetPoint" />
          </mxGeometry>
        </mxCell>
        <mxCell id="_8yFZwngdMzLIjRQkhzj-18" value="&lt;font face=&quot;Times New Roman&quot; style=&quot;font-size: 14px;&quot;&gt;Powers&lt;br&gt;&lt;/font&gt;" style="text;html=1;strokeColor=none;fillColor=none;align=center;verticalAlign=middle;whiteSpace=wrap;rounded=0;" parent="1" vertex="1">
          <mxGeometry x="650" y="390" width="180" height="40" as="geometry" />
        </mxCell>
        <mxCell id="_8yFZwngdMzLIjRQkhzj-19" value="" style="endArrow=none;html=1;rounded=0;exitX=0;exitY=0.75;exitDx=0;exitDy=0;entryX=1;entryY=0.75;entryDx=0;entryDy=0;" parent="1" source="_8yFZwngdMzLIjRQkhzj-16" target="_8yFZwngdMzLIjRQkhzj-16" edge="1">
          <mxGeometry width="50" height="50" relative="1" as="geometry">
            <mxPoint x="920" y="660" as="sourcePoint" />
            <mxPoint x="970" y="610" as="targetPoint" />
          </mxGeometry>
        </mxCell>
        <mxCell id="1dYv60Zq_1LRJ3aGBBcX-88" style="edgeStyle=orthogonalEdgeStyle;rounded=0;orthogonalLoop=1;jettySize=auto;html=1;exitX=0;exitY=0.5;exitDx=0;exitDy=0;entryX=1;entryY=0.5;entryDx=0;entryDy=0;" edge="1" parent="1" source="_8yFZwngdMzLIjRQkhzj-20" target="KU6yMKdAdcNV7RSqt3Mc-15">
          <mxGeometry relative="1" as="geometry" />
        </mxCell>
        <mxCell id="_8yFZwngdMzLIjRQkhzj-20" value="&lt;div style=&quot;&quot;&gt;&lt;ul&gt;&lt;li&gt;&lt;font face=&quot;Times New Roman&quot;&gt;&lt;span style=&quot;font-size: 14px;&quot;&gt;[int] Damage&lt;/span&gt;&lt;/font&gt;&lt;/li&gt;&lt;li&gt;&lt;font face=&quot;Times New Roman&quot;&gt;&lt;span style=&quot;font-size: 14px;&quot;&gt;[int] cost&lt;/span&gt;&lt;/font&gt;&lt;/li&gt;&lt;li&gt;&lt;font face=&quot;Times New Roman&quot;&gt;&lt;span style=&quot;font-size: 14px;&quot;&gt;[int] health&lt;/span&gt;&lt;/font&gt;&lt;/li&gt;&lt;/ul&gt;&lt;/div&gt;" style="text;html=1;strokeColor=none;fillColor=none;align=left;verticalAlign=middle;whiteSpace=wrap;rounded=0;" parent="1" vertex="1">
          <mxGeometry x="650" y="435" width="170" height="60" as="geometry" />
        </mxCell>
        <mxCell id="_8yFZwngdMzLIjRQkhzj-21" value="use" style="text;html=1;strokeColor=none;fillColor=none;align=center;verticalAlign=middle;whiteSpace=wrap;rounded=0;" parent="1" vertex="1">
          <mxGeometry x="650" y="505" width="180" height="30" as="geometry" />
        </mxCell>
        <mxCell id="1dYv60Zq_1LRJ3aGBBcX-1" value="" style="rounded=0;whiteSpace=wrap;html=1;" vertex="1" parent="1">
          <mxGeometry x="30" y="160" width="180" height="150" as="geometry" />
        </mxCell>
        <mxCell id="1dYv60Zq_1LRJ3aGBBcX-2" value="" style="endArrow=none;html=1;rounded=0;exitX=0;exitY=0.25;exitDx=0;exitDy=0;entryX=1;entryY=0.25;entryDx=0;entryDy=0;" edge="1" parent="1" source="1dYv60Zq_1LRJ3aGBBcX-1" target="1dYv60Zq_1LRJ3aGBBcX-1">
          <mxGeometry width="50" height="50" relative="1" as="geometry">
            <mxPoint x="300" y="430" as="sourcePoint" />
            <mxPoint x="350" y="380" as="targetPoint" />
          </mxGeometry>
        </mxCell>
        <mxCell id="1dYv60Zq_1LRJ3aGBBcX-3" value="&lt;font face=&quot;Times New Roman&quot; style=&quot;font-size: 14px;&quot;&gt;Enemy:Dart Monkey&lt;br&gt;&lt;/font&gt;" style="text;html=1;strokeColor=none;fillColor=none;align=center;verticalAlign=middle;whiteSpace=wrap;rounded=0;" vertex="1" parent="1">
          <mxGeometry x="30" y="160" width="180" height="40" as="geometry" />
        </mxCell>
        <mxCell id="1dYv60Zq_1LRJ3aGBBcX-4" value="" style="endArrow=none;html=1;rounded=0;exitX=0;exitY=0.75;exitDx=0;exitDy=0;entryX=1;entryY=0.75;entryDx=0;entryDy=0;" edge="1" parent="1" source="1dYv60Zq_1LRJ3aGBBcX-1" target="1dYv60Zq_1LRJ3aGBBcX-1">
          <mxGeometry width="50" height="50" relative="1" as="geometry">
            <mxPoint x="300" y="430" as="sourcePoint" />
            <mxPoint x="350" y="380" as="targetPoint" />
          </mxGeometry>
        </mxCell>
        <mxCell id="1dYv60Zq_1LRJ3aGBBcX-5" value="&lt;div style=&quot;&quot;&gt;&lt;ul&gt;&lt;li&gt;&lt;font face=&quot;Times New Roman&quot;&gt;&lt;span style=&quot;font-size: 14px;&quot;&gt;Inherits all features of enemy&lt;/span&gt;&lt;/font&gt;&lt;/li&gt;&lt;/ul&gt;&lt;/div&gt;" style="text;html=1;strokeColor=none;fillColor=none;align=left;verticalAlign=middle;whiteSpace=wrap;rounded=0;" vertex="1" parent="1">
          <mxGeometry x="30" y="200" width="180" height="70" as="geometry" />
        </mxCell>
        <mxCell id="1dYv60Zq_1LRJ3aGBBcX-6" value="Round ramping feature to increase strength" style="text;html=1;strokeColor=none;fillColor=none;align=center;verticalAlign=middle;whiteSpace=wrap;rounded=0;" vertex="1" parent="1">
          <mxGeometry x="30" y="270" width="170" height="40" as="geometry" />
        </mxCell>
        <mxCell id="1dYv60Zq_1LRJ3aGBBcX-7" value="" style="rounded=0;whiteSpace=wrap;html=1;" vertex="1" parent="1">
          <mxGeometry x="240" y="160" width="180" height="150" as="geometry" />
        </mxCell>
        <mxCell id="1dYv60Zq_1LRJ3aGBBcX-8" value="" style="endArrow=none;html=1;rounded=0;exitX=0;exitY=0.25;exitDx=0;exitDy=0;entryX=1;entryY=0.25;entryDx=0;entryDy=0;" edge="1" parent="1" source="1dYv60Zq_1LRJ3aGBBcX-7" target="1dYv60Zq_1LRJ3aGBBcX-7">
          <mxGeometry width="50" height="50" relative="1" as="geometry">
            <mxPoint x="510" y="430" as="sourcePoint" />
            <mxPoint x="560" y="380" as="targetPoint" />
          </mxGeometry>
        </mxCell>
        <mxCell id="1dYv60Zq_1LRJ3aGBBcX-9" value="&lt;font face=&quot;Times New Roman&quot; style=&quot;font-size: 14px;&quot;&gt;Enemy:Super Monkey&lt;br&gt;&lt;/font&gt;" style="text;html=1;strokeColor=none;fillColor=none;align=center;verticalAlign=middle;whiteSpace=wrap;rounded=0;" vertex="1" parent="1">
          <mxGeometry x="240" y="160" width="180" height="40" as="geometry" />
        </mxCell>
        <mxCell id="1dYv60Zq_1LRJ3aGBBcX-10" value="" style="endArrow=none;html=1;rounded=0;exitX=0;exitY=0.75;exitDx=0;exitDy=0;entryX=1;entryY=0.75;entryDx=0;entryDy=0;" edge="1" parent="1" source="1dYv60Zq_1LRJ3aGBBcX-7" target="1dYv60Zq_1LRJ3aGBBcX-7">
          <mxGeometry width="50" height="50" relative="1" as="geometry">
            <mxPoint x="510" y="430" as="sourcePoint" />
            <mxPoint x="560" y="380" as="targetPoint" />
          </mxGeometry>
        </mxCell>
        <mxCell id="1dYv60Zq_1LRJ3aGBBcX-11" value="&lt;div style=&quot;&quot;&gt;&lt;ul&gt;&lt;li&gt;&lt;font face=&quot;Times New Roman&quot;&gt;&lt;span style=&quot;font-size: 14px;&quot;&gt;Inherits all features of enemy&lt;/span&gt;&lt;/font&gt;&lt;/li&gt;&lt;li&gt;&lt;font face=&quot;Times New Roman&quot;&gt;&lt;span style=&quot;font-size: 14px;&quot;&gt;Has increased speed and health&lt;/span&gt;&lt;/font&gt;&lt;/li&gt;&lt;/ul&gt;&lt;/div&gt;" style="text;html=1;strokeColor=none;fillColor=none;align=left;verticalAlign=middle;whiteSpace=wrap;rounded=0;" vertex="1" parent="1">
          <mxGeometry x="240" y="200" width="180" height="70" as="geometry" />
        </mxCell>
        <mxCell id="1dYv60Zq_1LRJ3aGBBcX-12" value="Round ramping feature to increase strength" style="text;html=1;strokeColor=none;fillColor=none;align=center;verticalAlign=middle;whiteSpace=wrap;rounded=0;" vertex="1" parent="1">
          <mxGeometry x="240" y="270" width="170" height="40" as="geometry" />
        </mxCell>
        <mxCell id="1dYv60Zq_1LRJ3aGBBcX-13" value="" style="rounded=0;whiteSpace=wrap;html=1;" vertex="1" parent="1">
          <mxGeometry x="440" y="160" width="180" height="150" as="geometry" />
        </mxCell>
        <mxCell id="1dYv60Zq_1LRJ3aGBBcX-14" value="" style="endArrow=none;html=1;rounded=0;exitX=0;exitY=0.25;exitDx=0;exitDy=0;entryX=1;entryY=0.25;entryDx=0;entryDy=0;" edge="1" parent="1" source="1dYv60Zq_1LRJ3aGBBcX-13" target="1dYv60Zq_1LRJ3aGBBcX-13">
          <mxGeometry width="50" height="50" relative="1" as="geometry">
            <mxPoint x="710" y="430" as="sourcePoint" />
            <mxPoint x="760" y="380" as="targetPoint" />
          </mxGeometry>
        </mxCell>
        <mxCell id="1dYv60Zq_1LRJ3aGBBcX-15" value="&lt;font face=&quot;Times New Roman&quot; style=&quot;font-size: 14px;&quot;&gt;Enemy: Ice Monkey&lt;br&gt;&lt;/font&gt;" style="text;html=1;strokeColor=none;fillColor=none;align=center;verticalAlign=middle;whiteSpace=wrap;rounded=0;" vertex="1" parent="1">
          <mxGeometry x="440" y="160" width="180" height="40" as="geometry" />
        </mxCell>
        <mxCell id="1dYv60Zq_1LRJ3aGBBcX-16" value="" style="endArrow=none;html=1;rounded=0;exitX=0;exitY=0.75;exitDx=0;exitDy=0;entryX=1;entryY=0.75;entryDx=0;entryDy=0;" edge="1" parent="1" source="1dYv60Zq_1LRJ3aGBBcX-13" target="1dYv60Zq_1LRJ3aGBBcX-13">
          <mxGeometry width="50" height="50" relative="1" as="geometry">
            <mxPoint x="710" y="430" as="sourcePoint" />
            <mxPoint x="760" y="380" as="targetPoint" />
          </mxGeometry>
        </mxCell>
        <mxCell id="1dYv60Zq_1LRJ3aGBBcX-17" value="&lt;div style=&quot;&quot;&gt;&lt;ul&gt;&lt;li&gt;&lt;font face=&quot;Times New Roman&quot;&gt;&lt;span style=&quot;font-size: 14px;&quot;&gt;Inherits all features of enemy&lt;/span&gt;&lt;/font&gt;&lt;/li&gt;&lt;li&gt;&lt;font face=&quot;Times New Roman&quot;&gt;&lt;span style=&quot;font-size: 14px;&quot;&gt;Slows down players troops&lt;/span&gt;&lt;/font&gt;&lt;/li&gt;&lt;/ul&gt;&lt;/div&gt;" style="text;html=1;strokeColor=none;fillColor=none;align=left;verticalAlign=middle;whiteSpace=wrap;rounded=0;" vertex="1" parent="1">
          <mxGeometry x="440" y="200" width="180" height="70" as="geometry" />
        </mxCell>
        <mxCell id="1dYv60Zq_1LRJ3aGBBcX-18" value="Round ramping feature to increase strength" style="text;html=1;strokeColor=none;fillColor=none;align=center;verticalAlign=middle;whiteSpace=wrap;rounded=0;" vertex="1" parent="1">
          <mxGeometry x="440" y="270" width="170" height="40" as="geometry" />
        </mxCell>
        <mxCell id="1dYv60Zq_1LRJ3aGBBcX-19" value="" style="rounded=0;whiteSpace=wrap;html=1;" vertex="1" parent="1">
          <mxGeometry x="650" y="160" width="180" height="150" as="geometry" />
        </mxCell>
        <mxCell id="1dYv60Zq_1LRJ3aGBBcX-20" value="" style="endArrow=none;html=1;rounded=0;exitX=0;exitY=0.25;exitDx=0;exitDy=0;entryX=1;entryY=0.25;entryDx=0;entryDy=0;" edge="1" parent="1" source="1dYv60Zq_1LRJ3aGBBcX-19" target="1dYv60Zq_1LRJ3aGBBcX-19">
          <mxGeometry width="50" height="50" relative="1" as="geometry">
            <mxPoint x="920" y="430" as="sourcePoint" />
            <mxPoint x="970" y="380" as="targetPoint" />
          </mxGeometry>
        </mxCell>
        <mxCell id="1dYv60Zq_1LRJ3aGBBcX-21" value="&lt;font face=&quot;Times New Roman&quot; style=&quot;font-size: 14px;&quot;&gt;Enemy: Monkey Apprentice&lt;br&gt;&lt;/font&gt;" style="text;html=1;strokeColor=none;fillColor=none;align=center;verticalAlign=middle;whiteSpace=wrap;rounded=0;" vertex="1" parent="1">
          <mxGeometry x="650" y="160" width="180" height="40" as="geometry" />
        </mxCell>
        <mxCell id="1dYv60Zq_1LRJ3aGBBcX-22" value="" style="endArrow=none;html=1;rounded=0;exitX=0;exitY=0.75;exitDx=0;exitDy=0;entryX=1;entryY=0.75;entryDx=0;entryDy=0;" edge="1" parent="1" source="1dYv60Zq_1LRJ3aGBBcX-19" target="1dYv60Zq_1LRJ3aGBBcX-19">
          <mxGeometry width="50" height="50" relative="1" as="geometry">
            <mxPoint x="920" y="430" as="sourcePoint" />
            <mxPoint x="970" y="380" as="targetPoint" />
          </mxGeometry>
        </mxCell>
        <mxCell id="1dYv60Zq_1LRJ3aGBBcX-23" value="&lt;div style=&quot;&quot;&gt;&lt;ul&gt;&lt;li&gt;&lt;font face=&quot;Times New Roman&quot;&gt;&lt;span style=&quot;font-size: 14px;&quot;&gt;Inherits all features of enemy&lt;/span&gt;&lt;/font&gt;&lt;/li&gt;&lt;li&gt;&lt;font face=&quot;Times New Roman&quot;&gt;&lt;span style=&quot;font-size: 14px;&quot;&gt;random chance to take&amp;nbsp; no damage from attacks&lt;/span&gt;&lt;/font&gt;&lt;/li&gt;&lt;/ul&gt;&lt;/div&gt;" style="text;html=1;strokeColor=none;fillColor=none;align=left;verticalAlign=middle;whiteSpace=wrap;rounded=0;" vertex="1" parent="1">
          <mxGeometry x="650" y="200" width="180" height="70" as="geometry" />
        </mxCell>
        <mxCell id="1dYv60Zq_1LRJ3aGBBcX-24" value="Round ramping feature to increase strength" style="text;html=1;strokeColor=none;fillColor=none;align=center;verticalAlign=middle;whiteSpace=wrap;rounded=0;" vertex="1" parent="1">
          <mxGeometry x="650" y="270" width="170" height="40" as="geometry" />
        </mxCell>
        <mxCell id="1dYv60Zq_1LRJ3aGBBcX-36" value="" style="rounded=0;whiteSpace=wrap;html=1;" vertex="1" parent="1">
          <mxGeometry x="335" y="786.5" width="180" height="150" as="geometry" />
        </mxCell>
        <mxCell id="1dYv60Zq_1LRJ3aGBBcX-37" value="" style="endArrow=none;html=1;rounded=0;exitX=0;exitY=0.25;exitDx=0;exitDy=0;entryX=1;entryY=0.25;entryDx=0;entryDy=0;" edge="1" parent="1" source="1dYv60Zq_1LRJ3aGBBcX-36" target="1dYv60Zq_1LRJ3aGBBcX-36">
          <mxGeometry width="50" height="50" relative="1" as="geometry">
            <mxPoint x="605" y="1056.5" as="sourcePoint" />
            <mxPoint x="655" y="1006.5" as="targetPoint" />
          </mxGeometry>
        </mxCell>
        <mxCell id="1dYv60Zq_1LRJ3aGBBcX-86" style="edgeStyle=orthogonalEdgeStyle;rounded=0;orthogonalLoop=1;jettySize=auto;html=1;exitX=0.5;exitY=0;exitDx=0;exitDy=0;entryX=0.5;entryY=1;entryDx=0;entryDy=0;" edge="1" parent="1" source="1dYv60Zq_1LRJ3aGBBcX-38" target="KU6yMKdAdcNV7RSqt3Mc-6">
          <mxGeometry relative="1" as="geometry" />
        </mxCell>
        <mxCell id="1dYv60Zq_1LRJ3aGBBcX-38" value="&lt;font face=&quot;Times New Roman&quot; style=&quot;font-size: 14px;&quot;&gt;Tower&lt;br&gt;&lt;/font&gt;" style="text;html=1;strokeColor=none;fillColor=none;align=center;verticalAlign=middle;whiteSpace=wrap;rounded=0;" vertex="1" parent="1">
          <mxGeometry x="335" y="786.5" width="180" height="40" as="geometry" />
        </mxCell>
        <mxCell id="1dYv60Zq_1LRJ3aGBBcX-39" value="" style="endArrow=none;html=1;rounded=0;exitX=0;exitY=0.75;exitDx=0;exitDy=0;entryX=1;entryY=0.75;entryDx=0;entryDy=0;" edge="1" parent="1" source="1dYv60Zq_1LRJ3aGBBcX-36" target="1dYv60Zq_1LRJ3aGBBcX-36">
          <mxGeometry width="50" height="50" relative="1" as="geometry">
            <mxPoint x="605" y="1056.5" as="sourcePoint" />
            <mxPoint x="655" y="1006.5" as="targetPoint" />
          </mxGeometry>
        </mxCell>
        <mxCell id="1dYv60Zq_1LRJ3aGBBcX-40" style="edgeStyle=orthogonalEdgeStyle;rounded=0;orthogonalLoop=1;jettySize=auto;html=1;entryX=0.5;entryY=0;entryDx=0;entryDy=0;" edge="1" parent="1" source="1dYv60Zq_1LRJ3aGBBcX-44" target="1dYv60Zq_1LRJ3aGBBcX-48">
          <mxGeometry relative="1" as="geometry">
            <mxPoint x="70" y="946.5" as="targetPoint" />
          </mxGeometry>
        </mxCell>
        <mxCell id="1dYv60Zq_1LRJ3aGBBcX-41" style="edgeStyle=orthogonalEdgeStyle;rounded=0;orthogonalLoop=1;jettySize=auto;html=1;exitX=0;exitY=0.5;exitDx=0;exitDy=0;entryX=0.25;entryY=0;entryDx=0;entryDy=0;" edge="1" parent="1" source="1dYv60Zq_1LRJ3aGBBcX-44" target="1dYv60Zq_1LRJ3aGBBcX-54">
          <mxGeometry relative="1" as="geometry" />
        </mxCell>
        <mxCell id="1dYv60Zq_1LRJ3aGBBcX-42" style="edgeStyle=orthogonalEdgeStyle;rounded=0;orthogonalLoop=1;jettySize=auto;html=1;exitX=1;exitY=0.5;exitDx=0;exitDy=0;entryX=0;entryY=0;entryDx=0;entryDy=0;" edge="1" parent="1" source="1dYv60Zq_1LRJ3aGBBcX-44" target="1dYv60Zq_1LRJ3aGBBcX-66">
          <mxGeometry relative="1" as="geometry" />
        </mxCell>
        <mxCell id="1dYv60Zq_1LRJ3aGBBcX-43" style="edgeStyle=orthogonalEdgeStyle;rounded=0;orthogonalLoop=1;jettySize=auto;html=1;entryX=0.75;entryY=0;entryDx=0;entryDy=0;" edge="1" parent="1" source="1dYv60Zq_1LRJ3aGBBcX-44" target="1dYv60Zq_1LRJ3aGBBcX-66">
          <mxGeometry relative="1" as="geometry" />
        </mxCell>
        <mxCell id="1dYv60Zq_1LRJ3aGBBcX-83" style="edgeStyle=orthogonalEdgeStyle;rounded=0;orthogonalLoop=1;jettySize=auto;html=1;entryX=0;entryY=0.5;entryDx=0;entryDy=0;" edge="1" parent="1" source="1dYv60Zq_1LRJ3aGBBcX-44" target="1dYv60Zq_1LRJ3aGBBcX-81">
          <mxGeometry relative="1" as="geometry" />
        </mxCell>
        <mxCell id="1dYv60Zq_1LRJ3aGBBcX-84" style="edgeStyle=orthogonalEdgeStyle;rounded=0;orthogonalLoop=1;jettySize=auto;html=1;exitX=0;exitY=0.5;exitDx=0;exitDy=0;entryX=1;entryY=0.5;entryDx=0;entryDy=0;" edge="1" parent="1" source="1dYv60Zq_1LRJ3aGBBcX-44" target="1dYv60Zq_1LRJ3aGBBcX-75">
          <mxGeometry relative="1" as="geometry" />
        </mxCell>
        <mxCell id="1dYv60Zq_1LRJ3aGBBcX-44" value="&lt;div style=&quot;&quot;&gt;&lt;ul&gt;&lt;li&gt;&lt;font face=&quot;Times New Roman&quot;&gt;&lt;span style=&quot;font-size: 14px;&quot;&gt;[int] attack&lt;/span&gt;&lt;/font&gt;&lt;/li&gt;&lt;li&gt;&lt;font face=&quot;Times New Roman&quot;&gt;&lt;span style=&quot;font-size: 14px;&quot;&gt;[bool]affectApplied&lt;/span&gt;&lt;/font&gt;&lt;/li&gt;&lt;li&gt;&lt;font face=&quot;Times New Roman&quot;&gt;&lt;span style=&quot;font-size: 14px;&quot;&gt;[bool]upgrade&lt;/span&gt;&lt;/font&gt;&lt;/li&gt;&lt;/ul&gt;&lt;/div&gt;" style="text;html=1;strokeColor=none;fillColor=none;align=left;verticalAlign=middle;whiteSpace=wrap;rounded=0;" vertex="1" parent="1">
          <mxGeometry x="335" y="826.5" width="180" height="70" as="geometry" />
        </mxCell>
        <mxCell id="1dYv60Zq_1LRJ3aGBBcX-46" value="" style="rounded=0;whiteSpace=wrap;html=1;" vertex="1" parent="1">
          <mxGeometry x="20" y="950" width="180" height="150" as="geometry" />
        </mxCell>
        <mxCell id="1dYv60Zq_1LRJ3aGBBcX-47" value="" style="endArrow=none;html=1;rounded=0;exitX=0;exitY=0.25;exitDx=0;exitDy=0;entryX=1;entryY=0.25;entryDx=0;entryDy=0;" edge="1" parent="1" source="1dYv60Zq_1LRJ3aGBBcX-46" target="1dYv60Zq_1LRJ3aGBBcX-46">
          <mxGeometry width="50" height="50" relative="1" as="geometry">
            <mxPoint x="290" y="1220" as="sourcePoint" />
            <mxPoint x="340" y="1170" as="targetPoint" />
          </mxGeometry>
        </mxCell>
        <mxCell id="1dYv60Zq_1LRJ3aGBBcX-48" value="&lt;font face=&quot;Times New Roman&quot; style=&quot;font-size: 14px;&quot;&gt;Tower: pawn&lt;br&gt;&lt;/font&gt;" style="text;html=1;strokeColor=none;fillColor=none;align=center;verticalAlign=middle;whiteSpace=wrap;rounded=0;" vertex="1" parent="1">
          <mxGeometry x="20" y="950" width="180" height="40" as="geometry" />
        </mxCell>
        <mxCell id="1dYv60Zq_1LRJ3aGBBcX-49" value="" style="endArrow=none;html=1;rounded=0;exitX=0;exitY=0.75;exitDx=0;exitDy=0;entryX=1;entryY=0.75;entryDx=0;entryDy=0;" edge="1" parent="1" source="1dYv60Zq_1LRJ3aGBBcX-46" target="1dYv60Zq_1LRJ3aGBBcX-46">
          <mxGeometry width="50" height="50" relative="1" as="geometry">
            <mxPoint x="290" y="1220" as="sourcePoint" />
            <mxPoint x="340" y="1170" as="targetPoint" />
          </mxGeometry>
        </mxCell>
        <mxCell id="1dYv60Zq_1LRJ3aGBBcX-50" value="&lt;div style=&quot;&quot;&gt;&lt;ul&gt;&lt;li&gt;&lt;font face=&quot;Times New Roman&quot;&gt;&lt;span style=&quot;font-size: 14px;&quot;&gt;only attacks one square in front or diagonally&lt;/span&gt;&lt;/font&gt;&lt;/li&gt;&lt;/ul&gt;&lt;/div&gt;" style="text;html=1;strokeColor=none;fillColor=none;align=left;verticalAlign=middle;whiteSpace=wrap;rounded=0;" vertex="1" parent="1">
          <mxGeometry x="20" y="990" width="180" height="70" as="geometry" />
        </mxCell>
        <mxCell id="1dYv60Zq_1LRJ3aGBBcX-51" value="Can be upgraded to stronger pieces" style="text;html=1;strokeColor=none;fillColor=none;align=center;verticalAlign=middle;whiteSpace=wrap;rounded=0;" vertex="1" parent="1">
          <mxGeometry x="20" y="1060" width="170" height="40" as="geometry" />
        </mxCell>
        <mxCell id="1dYv60Zq_1LRJ3aGBBcX-52" value="" style="rounded=0;whiteSpace=wrap;html=1;" vertex="1" parent="1">
          <mxGeometry x="230" y="950" width="180" height="150" as="geometry" />
        </mxCell>
        <mxCell id="1dYv60Zq_1LRJ3aGBBcX-53" value="" style="endArrow=none;html=1;rounded=0;exitX=0;exitY=0.25;exitDx=0;exitDy=0;entryX=1;entryY=0.25;entryDx=0;entryDy=0;" edge="1" parent="1">
          <mxGeometry width="50" height="50" relative="1" as="geometry">
            <mxPoint x="230" y="985.5" as="sourcePoint" />
            <mxPoint x="410" y="985.5" as="targetPoint" />
          </mxGeometry>
        </mxCell>
        <mxCell id="1dYv60Zq_1LRJ3aGBBcX-54" value="&lt;font face=&quot;Times New Roman&quot; style=&quot;font-size: 14px;&quot;&gt;Tower: knight&lt;br&gt;&lt;/font&gt;" style="text;html=1;strokeColor=none;fillColor=none;align=center;verticalAlign=middle;whiteSpace=wrap;rounded=0;" vertex="1" parent="1">
          <mxGeometry x="230" y="950" width="180" height="40" as="geometry" />
        </mxCell>
        <mxCell id="1dYv60Zq_1LRJ3aGBBcX-55" value="" style="endArrow=none;html=1;rounded=0;exitX=0;exitY=0.75;exitDx=0;exitDy=0;entryX=1;entryY=0.75;entryDx=0;entryDy=0;" edge="1" parent="1">
          <mxGeometry width="50" height="50" relative="1" as="geometry">
            <mxPoint x="230" y="1060" as="sourcePoint" />
            <mxPoint x="410" y="1060" as="targetPoint" />
          </mxGeometry>
        </mxCell>
        <mxCell id="1dYv60Zq_1LRJ3aGBBcX-56" value="&lt;div style=&quot;&quot;&gt;&lt;ul&gt;&lt;li&gt;&lt;span style=&quot;font-size: 14px; font-family: &amp;quot;Times New Roman&amp;quot;; background-color: initial;&quot;&gt;Attacks in L pattern&lt;/span&gt;&lt;br&gt;&lt;/li&gt;&lt;/ul&gt;&lt;/div&gt;" style="text;html=1;strokeColor=none;fillColor=none;align=left;verticalAlign=middle;whiteSpace=wrap;rounded=0;" vertex="1" parent="1">
          <mxGeometry x="230" y="986.5" width="180" height="70" as="geometry" />
        </mxCell>
        <mxCell id="1dYv60Zq_1LRJ3aGBBcX-57" value="Can be upgraded to stronger pieces" style="text;html=1;strokeColor=none;fillColor=none;align=center;verticalAlign=middle;whiteSpace=wrap;rounded=0;" vertex="1" parent="1">
          <mxGeometry x="230" y="1060" width="170" height="40" as="geometry" />
        </mxCell>
        <mxCell id="1dYv60Zq_1LRJ3aGBBcX-58" value="" style="rounded=0;whiteSpace=wrap;html=1;" vertex="1" parent="1">
          <mxGeometry x="430" y="950" width="180" height="150" as="geometry" />
        </mxCell>
        <mxCell id="1dYv60Zq_1LRJ3aGBBcX-59" value="" style="endArrow=none;html=1;rounded=0;exitX=0;exitY=0.25;exitDx=0;exitDy=0;entryX=1;entryY=0.25;entryDx=0;entryDy=0;" edge="1" parent="1">
          <mxGeometry width="50" height="50" relative="1" as="geometry">
            <mxPoint x="430" y="984" as="sourcePoint" />
            <mxPoint x="610" y="984" as="targetPoint" />
          </mxGeometry>
        </mxCell>
        <mxCell id="1dYv60Zq_1LRJ3aGBBcX-60" value="&lt;font face=&quot;Times New Roman&quot; style=&quot;font-size: 14px;&quot;&gt;Tower: Bishop&lt;br&gt;&lt;/font&gt;" style="text;html=1;strokeColor=none;fillColor=none;align=center;verticalAlign=middle;whiteSpace=wrap;rounded=0;" vertex="1" parent="1">
          <mxGeometry x="430" y="950" width="180" height="40" as="geometry" />
        </mxCell>
        <mxCell id="1dYv60Zq_1LRJ3aGBBcX-61" value="" style="endArrow=none;html=1;rounded=0;exitX=0;exitY=0.75;exitDx=0;exitDy=0;entryX=1;entryY=0.75;entryDx=0;entryDy=0;" edge="1" parent="1">
          <mxGeometry width="50" height="50" relative="1" as="geometry">
            <mxPoint x="430" y="1059" as="sourcePoint" />
            <mxPoint x="610" y="1059" as="targetPoint" />
          </mxGeometry>
        </mxCell>
        <mxCell id="1dYv60Zq_1LRJ3aGBBcX-62" value="&lt;div style=&quot;&quot;&gt;&lt;ul&gt;&lt;li&gt;&lt;font face=&quot;Times New Roman&quot;&gt;&lt;span style=&quot;font-size: 14px;&quot;&gt;Attacks in full diagonal&lt;/span&gt;&lt;/font&gt;&lt;/li&gt;&lt;/ul&gt;&lt;/div&gt;" style="text;html=1;strokeColor=none;fillColor=none;align=left;verticalAlign=middle;whiteSpace=wrap;rounded=0;" vertex="1" parent="1">
          <mxGeometry x="425" y="986.5" width="180" height="70" as="geometry" />
        </mxCell>
        <mxCell id="1dYv60Zq_1LRJ3aGBBcX-63" value="Can be upgraded to stronger pieces" style="text;html=1;strokeColor=none;fillColor=none;align=center;verticalAlign=middle;whiteSpace=wrap;rounded=0;" vertex="1" parent="1">
          <mxGeometry x="430" y="1060" width="170" height="40" as="geometry" />
        </mxCell>
        <mxCell id="1dYv60Zq_1LRJ3aGBBcX-64" value="" style="rounded=0;whiteSpace=wrap;html=1;" vertex="1" parent="1">
          <mxGeometry x="640" y="950" width="180" height="150" as="geometry" />
        </mxCell>
        <mxCell id="1dYv60Zq_1LRJ3aGBBcX-65" value="" style="endArrow=none;html=1;rounded=0;exitX=0;exitY=0.25;exitDx=0;exitDy=0;entryX=1;entryY=0.25;entryDx=0;entryDy=0;" edge="1" parent="1">
          <mxGeometry width="50" height="50" relative="1" as="geometry">
            <mxPoint x="640" y="980" as="sourcePoint" />
            <mxPoint x="820" y="980" as="targetPoint" />
          </mxGeometry>
        </mxCell>
        <mxCell id="1dYv60Zq_1LRJ3aGBBcX-66" value="&lt;font face=&quot;Times New Roman&quot; style=&quot;font-size: 14px;&quot;&gt;Tower: Rook&lt;br&gt;&lt;/font&gt;" style="text;html=1;strokeColor=none;fillColor=none;align=center;verticalAlign=middle;whiteSpace=wrap;rounded=0;" vertex="1" parent="1">
          <mxGeometry x="650" y="946.5" width="180" height="40" as="geometry" />
        </mxCell>
        <mxCell id="1dYv60Zq_1LRJ3aGBBcX-67" value="" style="endArrow=none;html=1;rounded=0;exitX=0;exitY=0.75;exitDx=0;exitDy=0;entryX=1;entryY=0.75;entryDx=0;entryDy=0;" edge="1" parent="1">
          <mxGeometry width="50" height="50" relative="1" as="geometry">
            <mxPoint x="640" y="1059" as="sourcePoint" />
            <mxPoint x="820" y="1059" as="targetPoint" />
          </mxGeometry>
        </mxCell>
        <mxCell id="1dYv60Zq_1LRJ3aGBBcX-68" value="&lt;div style=&quot;&quot;&gt;&lt;ul&gt;&lt;li&gt;&lt;font face=&quot;Times New Roman&quot;&gt;&lt;span style=&quot;font-size: 14px;&quot;&gt;attacks all tiles in the column and row the piece currently is in&lt;/span&gt;&lt;/font&gt;&lt;/li&gt;&lt;/ul&gt;&lt;/div&gt;" style="text;html=1;strokeColor=none;fillColor=none;align=left;verticalAlign=middle;whiteSpace=wrap;rounded=0;" vertex="1" parent="1">
          <mxGeometry x="635" y="986.5" width="180" height="70" as="geometry" />
        </mxCell>
        <mxCell id="1dYv60Zq_1LRJ3aGBBcX-69" value="Can be upgraded to stronger pieces" style="text;html=1;strokeColor=none;fillColor=none;align=center;verticalAlign=middle;whiteSpace=wrap;rounded=0;" vertex="1" parent="1">
          <mxGeometry x="640" y="1060" width="170" height="40" as="geometry" />
        </mxCell>
        <mxCell id="1dYv60Zq_1LRJ3aGBBcX-71" value="" style="rounded=0;whiteSpace=wrap;html=1;" vertex="1" parent="1">
          <mxGeometry x="25" y="700" width="180" height="150" as="geometry" />
        </mxCell>
        <mxCell id="1dYv60Zq_1LRJ3aGBBcX-72" value="" style="endArrow=none;html=1;rounded=0;exitX=0;exitY=0.25;exitDx=0;exitDy=0;entryX=1;entryY=0.25;entryDx=0;entryDy=0;" edge="1" parent="1" source="1dYv60Zq_1LRJ3aGBBcX-71" target="1dYv60Zq_1LRJ3aGBBcX-71">
          <mxGeometry width="50" height="50" relative="1" as="geometry">
            <mxPoint x="295" y="970" as="sourcePoint" />
            <mxPoint x="345" y="920" as="targetPoint" />
          </mxGeometry>
        </mxCell>
        <mxCell id="1dYv60Zq_1LRJ3aGBBcX-73" value="&lt;font face=&quot;Times New Roman&quot; style=&quot;font-size: 14px;&quot;&gt;Tower: King&lt;br&gt;&lt;/font&gt;" style="text;html=1;strokeColor=none;fillColor=none;align=center;verticalAlign=middle;whiteSpace=wrap;rounded=0;" vertex="1" parent="1">
          <mxGeometry x="25" y="700" width="180" height="40" as="geometry" />
        </mxCell>
        <mxCell id="1dYv60Zq_1LRJ3aGBBcX-74" value="" style="endArrow=none;html=1;rounded=0;exitX=0;exitY=0.75;exitDx=0;exitDy=0;entryX=1;entryY=0.75;entryDx=0;entryDy=0;" edge="1" parent="1" source="1dYv60Zq_1LRJ3aGBBcX-71" target="1dYv60Zq_1LRJ3aGBBcX-71">
          <mxGeometry width="50" height="50" relative="1" as="geometry">
            <mxPoint x="295" y="970" as="sourcePoint" />
            <mxPoint x="345" y="920" as="targetPoint" />
          </mxGeometry>
        </mxCell>
        <mxCell id="1dYv60Zq_1LRJ3aGBBcX-75" value="&lt;div style=&quot;&quot;&gt;&lt;ul&gt;&lt;li&gt;&lt;font face=&quot;Times New Roman&quot;&gt;&lt;span style=&quot;font-size: 14px;&quot;&gt;Only one exists on the board&lt;/span&gt;&lt;/font&gt;&lt;/li&gt;&lt;li&gt;&lt;font face=&quot;Times New Roman&quot;&gt;&lt;span style=&quot;font-size: 14px;&quot;&gt;Attacks all adjacent squares to it&lt;/span&gt;&lt;/font&gt;&lt;/li&gt;&lt;/ul&gt;&lt;/div&gt;" style="text;html=1;strokeColor=none;fillColor=none;align=left;verticalAlign=middle;whiteSpace=wrap;rounded=0;" vertex="1" parent="1">
          <mxGeometry x="25" y="740" width="180" height="70" as="geometry" />
        </mxCell>
        <mxCell id="1dYv60Zq_1LRJ3aGBBcX-76" value="Highest upgrade level, if no king, player also loses" style="text;html=1;strokeColor=none;fillColor=none;align=center;verticalAlign=middle;whiteSpace=wrap;rounded=0;" vertex="1" parent="1">
          <mxGeometry x="25" y="810" width="170" height="40" as="geometry" />
        </mxCell>
        <mxCell id="1dYv60Zq_1LRJ3aGBBcX-77" value="" style="rounded=0;whiteSpace=wrap;html=1;" vertex="1" parent="1">
          <mxGeometry x="637.5" y="701.75" width="180" height="150" as="geometry" />
        </mxCell>
        <mxCell id="1dYv60Zq_1LRJ3aGBBcX-78" value="" style="endArrow=none;html=1;rounded=0;exitX=0;exitY=0.25;exitDx=0;exitDy=0;entryX=1;entryY=0.25;entryDx=0;entryDy=0;" edge="1" parent="1">
          <mxGeometry width="50" height="50" relative="1" as="geometry">
            <mxPoint x="637.5" y="731.75" as="sourcePoint" />
            <mxPoint x="817.5" y="731.75" as="targetPoint" />
          </mxGeometry>
        </mxCell>
        <mxCell id="1dYv60Zq_1LRJ3aGBBcX-79" value="&lt;font face=&quot;Times New Roman&quot; style=&quot;font-size: 14px;&quot;&gt;Tower: Queen&lt;br&gt;&lt;/font&gt;" style="text;html=1;strokeColor=none;fillColor=none;align=center;verticalAlign=middle;whiteSpace=wrap;rounded=0;" vertex="1" parent="1">
          <mxGeometry x="647.5" y="698.25" width="180" height="40" as="geometry" />
        </mxCell>
        <mxCell id="1dYv60Zq_1LRJ3aGBBcX-80" value="" style="endArrow=none;html=1;rounded=0;exitX=0;exitY=0.75;exitDx=0;exitDy=0;entryX=1;entryY=0.75;entryDx=0;entryDy=0;" edge="1" parent="1">
          <mxGeometry width="50" height="50" relative="1" as="geometry">
            <mxPoint x="637.5" y="810.75" as="sourcePoint" />
            <mxPoint x="817.5" y="810.75" as="targetPoint" />
          </mxGeometry>
        </mxCell>
        <mxCell id="1dYv60Zq_1LRJ3aGBBcX-81" value="&lt;div style=&quot;&quot;&gt;&lt;ul&gt;&lt;li&gt;&lt;font face=&quot;Times New Roman&quot;&gt;&lt;span style=&quot;font-size: 14px;&quot;&gt;attacks in diagonal and straight line pattern, combines bishop and rook attack&lt;/span&gt;&lt;/font&gt;&lt;/li&gt;&lt;/ul&gt;&lt;/div&gt;" style="text;html=1;strokeColor=none;fillColor=none;align=left;verticalAlign=middle;whiteSpace=wrap;rounded=0;" vertex="1" parent="1">
          <mxGeometry x="632.5" y="738.25" width="180" height="70" as="geometry" />
        </mxCell>
        <mxCell id="1dYv60Zq_1LRJ3aGBBcX-82" value="Highest level of upgrade" style="text;html=1;strokeColor=none;fillColor=none;align=center;verticalAlign=middle;whiteSpace=wrap;rounded=0;" vertex="1" parent="1">
          <mxGeometry x="637.5" y="811.75" width="170" height="40" as="geometry" />
        </mxCell>
      </root>
    </mxGraphModel>
  </diagram>
</mxfile>
